<svg xmlns="http://www.w3.org/2000/svg" width="1200" height="600" viewBox="0 0 9600 4800">
  <path fill="#f00" d="M0 0h9600v4800H0z"/>
  <path fill="#fff" d="M2400 0h4800v4800H2400z"/>
  <path fill="#f00" d="M4800 960l-89.5 275.7-268.1-111.3 155.9 241.9-241.9 155.9 275.7-89.5L4800 1700l89.5-267.3 275.7 89.5-241.9-155.9 155.9-241.9-268.1 111.3z"/>
  <path fill="#f00" d="M4800 2660c-99.2 0-198.5 29.7-281.7 89.2-83.2 59.4-139.7 142.6-159.5 233.8-19.8 91.2-3.6 183.4 45.8 260.2 49.4 76.8 127.7 129.5 220.9 149.3 93.2 19.8 185.4 3.6 262.2-45.8 76.8-49.4 129.5-127.7 149.3-220.9 19.8-93.2 3.6-185.4-45.8-262.2-49.4-76.8-127.7-129.5-220.9-149.3-23.3-5-46.7-7.5-70.3-7.5z"/>
</svg> 